<svg width="14" height="13" viewBox="0 0 14 13" fill="none" xmlns="http://www.w3.org/2000/svg">
    <path d="M6.16569 0V3.00391H7.17528V0H6.16569ZM2.38762 1.55078L1.67381 2.25781L3.83101 4.39844L4.54877 3.6875L2.38762 1.55078ZM10.9534 1.55078L10.2395 2.25781L10.9534 2.96484L11.6672 2.25781L10.9534 1.55078ZM0.108154 6V7H3.13692V6H0.108154ZM12.2232 6V7H13.2328V6H12.2232ZM3.45242 8.97656L1.67381 10.7422L2.38762 11.4492L4.17017 9.6875L3.45242 8.97656ZM10.6457 9.73047L9.93193 10.4375L10.9534 11.4492L11.6672 10.7422L10.6457 9.73047ZM6.16569 11V13H7.17528V11H6.16569Z" fill="#5B5B5B"/>
</svg>
